<?xml version="1.0" ?><svg fill="none" height="24" viewBox="0 0 24 24" width="24" xmlns="http://www.w3.org/2000/svg"><path clip-rule="evenodd" d="M7 3C7.55228 3 8 3.44772 8 4V14C8 14.5523 7.55228 15 7 15C6.44772 15 6 14.5523 6 14V4C6 3.44772 6.44772 3 7 3Z" fill="black" fill-rule="evenodd"/><path clip-rule="evenodd" d="M17 9C17.5523 9 18 9.44772 18 10V20C18 20.5523 17.5523 21 17 21C16.4477 21 16 20.5523 16 20V10C16 9.44772 16.4477 9 17 9Z" fill="black" fill-rule="evenodd"/><path clip-rule="evenodd" d="M6.29289 3.29289C6.68342 2.90237 7.31658 2.90237 7.70711 3.29289L10.7071 6.29289C11.0976 6.68342 11.0976 7.31658 10.7071 7.70711C10.3166 8.09763 9.68342 8.09763 9.29289 7.70711L7 5.41421L4.70711 7.70711C4.31658 8.09763 3.68342 8.09763 3.29289 7.70711C2.90237 7.31658 2.90237 6.68342 3.29289 6.29289L6.29289 3.29289Z" fill="black" fill-rule="evenodd"/><path clip-rule="evenodd" d="M17.7071 20.7071C17.3166 21.0976 16.6834 21.0976 16.2929 20.7071L13.2929 17.7071C12.9024 17.3166 12.9024 16.6834 13.2929 16.2929C13.6834 15.9024 14.3166 15.9024 14.7071 16.2929L17 18.5858L19.2929 16.2929C19.6834 15.9024 20.3166 15.9024 20.7071 16.2929C21.0976 16.6834 21.0976 17.3166 20.7071 17.7071L17.7071 20.7071Z" fill="black" fill-rule="evenodd"/></svg>