<?xml version="1.0"?>
<svg height="32" id="icon" viewBox="0 0 32 32" width="32" xmlns="http://www.w3.org/2000/svg">
  <defs></defs>
  <polygon points="30 24 26 24 26 20 24 20 24 24 20 24 20 26 24 26 24 30 26 30 26 26 30 26 30 24" />
  <path d="M16,28H8V4h8v6a2.0058,2.0058,0,0,0,2,2h6v4h2V10a.9092.9092,0,0,0-.3-.7l-7-7A.9087.9087,0,0,0,18,2H8A2.0058,2.0058,0,0,0,6,4V28a2.0058,2.0058,0,0,0,2,2h8ZM18,4.4,23.6,10H18Z" />
  <rect class="cls-1" data-name="&lt;Transparent Rectangle&gt;" height="32" id="_Transparent_Rectangle_" width="32" />
</svg>