<?xml version="1.0" ?><!DOCTYPE svg  PUBLIC '-//W3C//DTD SVG 1.1//EN'  'http://www.w3.org/Graphics/SVG/1.1/DTD/svg11.dtd'><svg height="512px" style="enable-background:new 0 0 512 512;" version="1.1" viewBox="0 0 512 512" width="512px" xml:space="preserve" xmlns="http://www.w3.org/2000/svg" xmlns:xlink="http://www.w3.org/1999/xlink"><g id="D_-_11_x2C__Agreement_x2C__report_x2C__form_x2C__layout_x2C__paper"><g><path d="M391.03,244.56c-0.001,0.001-0.002,0.003-0.003,0.004L297.906,361l-14.982,52.656l44.89-30.143l55.728-78.865    c0.002-0.001,0.002-0.002,0.004-0.003l19.016-26.912c0.02-0.028,0.041-0.056,0.061-0.084l26.635-35.973l-22.403-16.9    L391.03,244.56z"/><path d="M56.573,434.324c0,7.322,5.775,13.428,12.921,13.748c0.191-0.014,0.381-0.041,0.572-0.063    c0.198-0.024,0.397-0.041,0.595-0.075c0.191-0.034,0.38-0.082,0.57-0.125c0.21-0.048,0.421-0.089,0.63-0.147    c0.179-0.051,0.355-0.116,0.533-0.175c0.215-0.07,0.432-0.137,0.645-0.219c0.168-0.065,0.333-0.145,0.5-0.217    c0.217-0.095,0.435-0.184,0.648-0.289c0.16-0.079,0.315-0.171,0.473-0.256c0.214-0.116,0.43-0.227,0.639-0.354    c0.154-0.093,0.302-0.197,0.453-0.296c0.206-0.135,0.414-0.265,0.614-0.408c0.149-0.108,0.291-0.227,0.437-0.34    c0.193-0.149,0.39-0.294,0.576-0.452c0.146-0.123,0.283-0.258,0.425-0.387c0.177-0.16,0.357-0.316,0.527-0.485    c0.143-0.14,0.274-0.291,0.411-0.437c0.158-0.168,0.321-0.332,0.473-0.506c0.139-0.16,0.265-0.33,0.398-0.495    c0.136-0.17,0.279-0.336,0.408-0.511c0.135-0.183,0.255-0.374,0.382-0.562c0.113-0.168,0.232-0.331,0.339-0.501    c0.13-0.21,0.244-0.428,0.363-0.643c0.087-0.156,0.183-0.309,0.264-0.468c0.146-0.283,0.271-0.574,0.396-0.865    c0.041-0.095,0.09-0.188,0.129-0.283c0.157-0.389,0.295-0.782,0.414-1.18c0.037-0.125,0.06-0.252,0.093-0.378    c0.073-0.275,0.148-0.548,0.201-0.824c0.03-0.158,0.042-0.317,0.066-0.476c0.038-0.25,0.082-0.5,0.103-0.752l0.003-0.059    c0.021-0.267,0.039-0.532,0.039-0.799V110.75H54.726L56.573,434.324z"/><polygon points="335.828,69.214 335.828,101.379 374.426,101.379   "/><path d="M333.754,390.813l-56.178,37.723c-0.008,0.006-0.016,0.011-0.023,0.016l-0.025,0.017    c-0.018,0.012-0.037,0.021-0.055,0.032c-0.16,0.104-0.326,0.197-0.496,0.281c-0.025,0.013-0.05,0.028-0.074,0.04    c-0.039,0.019-0.08,0.028-0.119,0.046c-0.133,0.058-0.267,0.108-0.404,0.154c-0.045,0.015-0.091,0.035-0.138,0.049    c-0.03,0.009-0.063,0.015-0.095,0.022c-0.136,0.038-0.275,0.066-0.414,0.091c-0.058,0.01-0.114,0.024-0.172,0.033    c-0.017,0.002-0.032,0.004-0.048,0.006c-0.199,0.025-0.399,0.041-0.601,0.041c-0.018,0-0.036-0.003-0.054-0.003    c-0.07-0.001-0.14-0.013-0.21-0.016c-0.148-0.009-0.297-0.015-0.445-0.037c-0.015-0.003-0.029-0.006-0.043-0.009    c-0.076-0.012-0.148-0.035-0.225-0.051c-0.141-0.03-0.281-0.059-0.42-0.103c-0.018-0.005-0.035-0.01-0.053-0.016    c-0.078-0.025-0.154-0.063-0.232-0.094c-0.126-0.049-0.252-0.095-0.376-0.155c-0.021-0.011-0.041-0.017-0.062-0.027    c-0.08-0.041-0.153-0.095-0.231-0.14c-0.089-0.052-0.181-0.094-0.267-0.152c-0.26-0.175-26.088-17.357-42.138-9.336    c-4.397,2.199-9.6,3.068-15.073,3.069c-20.171,0.002-44.072-11.804-45.343-12.44c-2.313-1.156-3.252-3.97-2.095-6.284    c1.155-2.313,3.97-3.254,6.285-2.097c9.853,4.916,38.408,16.184,52.037,9.371c15.814-7.91,36.422,1.308,46.117,6.668    l17.068-59.985c0.103-0.359,0.26-0.697,0.443-1.021c0.122-0.216,0.248-0.429,0.403-0.624l92.684-115.888V110.75h-51.539    c-2.588,0-4.686-2.097-4.686-4.686V63.896H92.183v42.169v327.983c0,0.399-0.02,0.822-0.05,1.281c0,0.003,0,0.005,0,0.008    l-0.014,0.214c-0.001,0.033-0.004,0.066-0.007,0.099c-0.041,0.507-0.107,1.012-0.186,1.513c-0.016,0.104-0.031,0.207-0.049,0.311    c-0.083,0.485-0.182,0.967-0.298,1.444c-0.021,0.086-0.045,0.171-0.067,0.257c-0.114,0.444-0.241,0.883-0.382,1.318    c-0.021,0.067-0.041,0.133-0.063,0.2c-0.157,0.468-0.332,0.933-0.52,1.391c-0.042,0.102-0.084,0.203-0.127,0.304    c-0.195,0.461-0.401,0.916-0.625,1.363c-0.021,0.042-0.044,0.082-0.065,0.123c-0.215,0.423-0.444,0.838-0.684,1.248    c-0.049,0.084-0.097,0.17-0.147,0.253c-0.255,0.425-0.522,0.842-0.803,1.252c-0.057,0.084-0.116,0.165-0.174,0.249    c-0.275,0.392-0.56,0.778-0.856,1.154c-0.019,0.025-0.036,0.051-0.055,0.075h295.67V322.104l-47.713,67.523    C334.64,390.093,334.229,390.494,333.754,390.813z M237.433,87.323h18.742v18.742h-18.742V87.323z M199.949,87.323h18.742v18.742    h-18.742V87.323z M162.465,87.323h18.742v18.742h-18.742V87.323z M124.981,87.323h18.742v18.742h-18.742V87.323z M124.981,129.492    h178.048c2.588,0,4.686,2.098,4.686,4.686c0,2.588-2.098,4.685-4.686,4.685H124.981c-2.587,0-4.686-2.097-4.686-4.685    C120.295,131.59,122.394,129.492,124.981,129.492z M124.981,157.605h206.162c2.588,0,4.686,2.098,4.686,4.686    c0,2.588-2.098,4.686-4.686,4.686H124.981c-2.587,0-4.686-2.098-4.686-4.686C120.295,159.703,122.394,157.605,124.981,157.605z     M124.981,185.718h159.306c2.588,0,4.686,2.099,4.686,4.686c0,2.588-2.098,4.686-4.686,4.686H124.981    c-2.587,0-4.686-2.098-4.686-4.686C120.295,187.816,122.394,185.718,124.981,185.718z M124.981,213.831h140.564    c2.588,0,4.686,2.099,4.686,4.686c0,2.588-2.098,4.686-4.686,4.686H124.981c-2.587,0-4.686-2.098-4.686-4.686    C120.295,215.929,122.394,213.831,124.981,213.831z M124.981,241.943h112.452c2.587,0,4.686,2.099,4.686,4.686    c0,2.588-2.098,4.686-4.686,4.686H124.981c-2.587,0-4.686-2.098-4.686-4.686C120.295,244.042,122.394,241.943,124.981,241.943z     M124.981,270.057h159.306c2.588,0,4.686,2.098,4.686,4.686s-2.098,4.686-4.686,4.686H124.981c-2.587,0-4.686-2.098-4.686-4.686    S122.394,270.057,124.981,270.057z M120.295,302.854c0-2.588,2.098-4.686,4.686-4.686h159.306c2.588,0,4.686,2.098,4.686,4.686    s-2.098,4.686-4.686,4.686H124.981C122.394,307.54,120.295,305.442,120.295,302.854z"/><polygon points="434.773,187.333 412.566,217.349 421.424,224.031 434.849,234.158 457.275,204.148   "/></g></g><g id="Layer_1"/></svg>