<?xml version="1.0" ?><svg id="Layer_1" style="enable-background:new 0 0 50 50;" version="1.1" viewBox="0 0 50 50" xml:space="preserve" xmlns="http://www.w3.org/2000/svg" xmlns:xlink="http://www.w3.org/1999/xlink"><g id="Layer_1_1_"><path d="M29.618,5l-2-4h-5.236l-2,4H17v2H8v42h34V7h-9V5H29.618z M21.618,7l2-4h2.764l2,4H31v4v2H19v-2V7H21.618z M33,15v-2h3v30   H14V13h3v2H33z M40,9v38H10V9h7v2h-5v34h26V11h-5V9H40z"/><rect height="2" width="2" x="24" y="6"/><rect height="2" width="14" x="18" y="19"/><rect height="2" width="14" x="18" y="25"/><rect height="2" width="14" x="18" y="31"/><rect height="2" width="14" x="18" y="37"/></g></svg>